<svg width="56" height="56" viewBox="0 0 56 56" fill="none" xmlns="http://www.w3.org/2000/svg">
<path fill-rule="evenodd" clip-rule="evenodd" d="M5.83598 8.8795C5.36304 9.15436 4.98832 9.82614 4.99094 10.3941C4.99346 10.9039 5.39957 11.5843 5.8643 11.8573C6.24438 12.0807 6.34337 12.0824 20.3265 12.1115L34.406 12.141L34.4359 18.6388C34.4653 25.0502 34.4688 25.1407 34.696 25.4453C34.8225 25.6152 35.0932 25.8525 35.2976 25.9728C35.6559 26.1839 35.918 26.1935 42.8059 26.2463L49.943 26.301L51.2017 27.9316L52.4604 29.5622L52.4318 34.1113L52.4033 38.6603L50.789 38.6906L49.1747 38.7209L49.0532 38.4172C48.1538 36.1687 47.0885 34.9235 45.3486 34.0877C44.0646 33.4708 43.2653 33.309 41.8743 33.3841C40.0106 33.4847 38.5577 34.132 37.2523 35.4432C36.5281 36.1705 35.8178 37.3333 35.5561 38.2197L35.426 38.6603H30.2033H24.9805L24.7337 37.9785C24.0013 35.9559 22.315 34.3159 20.3017 33.6679C19.3075 33.348 17.5425 33.2757 16.5283 33.5133C14.5498 33.9768 12.7494 35.4073 11.9086 37.1838C11.6665 37.6951 11.4144 38.2489 11.3484 38.4142L11.2283 38.715H8.75421C5.91462 38.715 5.70954 38.7629 5.25891 39.5318C4.93155 40.0903 4.9169 40.5781 5.20958 41.1687C5.63844 42.0345 5.68493 42.0467 8.67393 42.0837L11.3195 42.1165L11.4489 42.5212C11.9719 44.1577 13.3711 45.7905 14.9114 46.5615C16.1391 47.176 17.2085 47.4014 18.5421 47.327C21.3069 47.1729 23.6152 45.5086 24.6675 42.9105L24.9715 42.1603H30.1863H35.4012L35.7592 42.9837C36.6337 44.9953 38.1581 46.421 40.0986 47.0422C41.1132 47.3669 42.6897 47.4339 43.7532 47.1972C46.0843 46.6786 48.0733 44.9363 48.8485 42.734L49.0503 42.1603L51.9495 42.1057C55.1375 42.0455 55.1161 42.0502 55.6777 41.2979C55.8993 41.0011 55.9033 40.8878 55.9033 34.7422V28.4885L55.6585 28.0743C55.5238 27.8464 54.7363 26.7925 53.9085 25.7321L52.4033 23.8043L49.5595 18.2232C46.731 12.6717 46.7132 12.6407 46.2337 12.3895C45.7563 12.1393 45.714 12.1369 41.8438 12.1369H37.9359L37.8943 11.015C37.8488 9.78425 37.6867 9.35156 37.1101 8.92183L36.8013 8.69159L21.5242 8.66611L6.24701 8.64062L5.83598 8.8795ZM46.1139 19.1363C47.0766 21.0609 47.8642 22.6605 47.8642 22.6909C47.8642 22.7213 45.6247 22.7463 42.8876 22.7463H37.9111V19.1916V15.6369H41.1373H44.3635L46.1139 19.1363ZM3.74276 16.1024C2.64157 16.7367 2.62582 18.2673 3.71202 19.0722C4.01882 19.2994 4.07416 19.301 12.0792 19.301C19.521 19.301 20.1642 19.2864 20.4845 19.1112C21.0629 18.7948 21.3408 18.3 21.3408 17.5863C21.3408 16.9156 21.1565 16.5605 20.5877 16.1359C20.2899 15.9134 20.1746 15.91 12.2273 15.8837L4.16888 15.857L3.74276 16.1024ZM1.32513 22.848C0.595272 23.0246 0.130757 23.5511 0.011319 24.3372C-0.0680872 24.8592 0.279725 25.6169 0.758897 25.9664C1.06285 26.1881 1.19148 26.1921 9.01671 26.2244C14.4242 26.2467 17.0943 26.2199 17.3678 26.1404C18.1446 25.9148 18.6718 24.9108 18.4487 24.0823C18.3051 23.5488 17.7098 22.9749 17.1705 22.8497C16.6704 22.7337 1.8043 22.7322 1.32513 22.848ZM3.80991 29.9282C3.27223 30.1932 2.9838 30.6714 2.93426 31.3798C2.88427 32.0953 3.15213 32.5943 3.7864 32.9669C4.1504 33.1808 4.36401 33.1932 8.21576 33.226C10.4415 33.2451 12.5255 33.2287 12.8466 33.1896C14.5712 32.9802 15.0353 30.7143 13.5127 29.9379C13.1734 29.7649 12.7095 29.7468 8.65326 29.7489C4.74627 29.751 4.12262 29.7741 3.80991 29.9282ZM19.7038 37.1855C21.034 37.8295 21.884 39.4798 21.6153 40.8965C21.4623 41.7037 21.2449 42.1457 20.7202 42.7171C18.5615 45.0677 14.6142 43.5411 14.6142 40.3557C14.6142 37.7594 17.3584 36.0502 19.7038 37.1855ZM43.9597 37.267C45.5599 38.1379 46.2446 40.2202 45.4608 41.8322C45.085 42.6052 44.2826 43.3509 43.5178 43.6381C42.6616 43.9597 41.4771 43.9125 40.7145 43.5265C38.5178 42.4147 38.048 39.5316 39.787 37.8339C40.8913 36.7557 42.5951 36.5242 43.9597 37.267Z" fill="#97CC2F"/>
</svg>
