<svg width="102" height="47" viewBox="0 0 102 47" fill="none" xmlns="http://www.w3.org/2000/svg">
<rect x="27.6407" y="14.7457" width="73.634" height="22.2995" fill="#669833"/>
<rect x="68.4675" y="14.7457" width="32.8072" height="22.2995" fill="#383838"/>
<path d="M15.5968 46.3076C13.0212 46.3076 10.7984 45.9479 8.92844 45.2285C7.05847 44.473 5.50605 43.4478 4.27116 42.1528C3.07156 40.8218 2.17186 39.257 1.57206 37.4583C1.00754 35.6237 0.725281 33.6092 0.725281 31.4149V10.3883L10.4395 0.72522V30.7134C10.4395 32.2243 10.5982 33.5193 10.9158 34.5985C11.2686 35.6417 11.7662 36.7748 12.3307 37.4583C13.4888 38.7086 14.1533 39.0231 15.7027 39.0231C17.7138 39.0231 18.0218 38.6761 19.2566 37.4171C20.5268 36.158 21.0188 33.7351 21.0188 30.7134V0.72522L30.733 10.3883V31.4149C30.733 33.6092 30.4331 35.6237 29.8333 37.4583C29.2335 39.2929 28.3161 40.8757 27.0812 42.2067C25.8464 43.5018 24.2763 44.509 22.371 45.2285C20.4658 45.9479 18.2077 46.3076 15.5968 46.3076Z" fill="#97CC2F"/>
<path d="M35.1596 32.0123V24.1502C35.1596 22.6349 35.5307 21.5217 36.2728 20.8105C37.015 20.0838 38.1514 19.7204 39.6821 19.7204H41.0272V21.2975H40.03C38.9786 21.2975 38.2287 21.5681 37.7803 22.1092C37.332 22.6504 37.1078 23.493 37.1078 24.6372V32.0123H35.1596ZM52.1874 32.0123H45.7632C44.0469 32.0123 42.8796 31.5098 42.2611 30.5048C41.6427 29.4844 41.3335 27.9537 41.3335 25.9128C41.3335 23.6245 41.7509 22.001 42.5858 21.0424C43.4208 20.0683 44.8664 19.5813 46.9228 19.5813C48.7009 19.5813 50.0769 19.9446 51.051 20.6713C52.0251 21.3826 52.5121 22.6117 52.5121 24.3589C52.5121 25.101 52.373 25.6499 52.0947 26.0055C51.8163 26.3457 51.3448 26.5158 50.6799 26.5158H43.3512C43.3512 27.0878 43.3821 27.5826 43.4439 28.0001C43.5213 28.4021 43.6527 28.8041 43.8382 29.2061C44.0238 29.6081 44.3098 29.9173 44.6963 30.1338C45.0983 30.3348 45.5931 30.4353 46.1806 30.4353H52.1874V32.0123ZM43.3512 24.9387H49.9146C50.2857 24.9387 50.4712 24.73 50.4712 24.3125V24.2197C50.4712 22.1788 49.2961 21.1584 46.946 21.1584C45.6627 21.1584 44.7427 21.4444 44.1861 22.0165C43.6295 22.5731 43.3512 23.5472 43.3512 24.9387ZM54.967 19.7204H61.4377C62.4891 19.7204 63.2853 20.0219 63.8265 20.6249C64.3676 21.2279 64.6382 22.0474 64.6382 23.0833V30.157C64.6382 30.8063 64.4913 31.2779 64.1976 31.5717C63.9038 31.8654 63.409 32.0123 62.7132 32.0123H57.2399C56.1267 32.0123 55.3149 31.7108 54.8047 31.1078C54.2945 30.4894 54.0394 29.5385 54.0394 28.2552C54.0394 25.7659 55.1062 24.5212 57.2399 24.5212H62.6901V23.0601C62.6901 21.8851 62.1103 21.2975 60.9506 21.2975H54.967V19.7204ZM62.6901 26.0983H57.611C57.0389 26.0983 56.6369 26.2838 56.405 26.6549C56.1885 27.0105 56.0803 27.544 56.0803 28.2552C56.0803 28.9664 56.1885 29.5076 56.405 29.8786C56.6369 30.2497 57.0389 30.4353 57.611 30.4353H62.0407C62.4736 30.4353 62.6901 30.2265 62.6901 29.8091V26.0983Z" fill="white"/>
<path d="M82.3455 32.6925V30.2122H75.4708C75.0281 30.2122 74.6701 30.095 74.3966 29.8606C74.1232 29.6132 73.9865 29.2291 73.9865 28.7083C73.9865 28.2266 74.1948 27.7513 74.6115 27.2826L81.408 19.6072C81.8507 19.1124 82.3715 18.8651 82.9704 18.8651C83.4001 18.8651 83.7061 18.9757 83.8884 19.1971C84.0706 19.4054 84.1618 19.7244 84.1618 20.1541V28.7279H85.7437V30.2122H84.1618V32.6925H82.3455ZM82.3455 28.7279V20.9548C82.3455 20.9027 82.3194 20.8767 82.2673 20.8767C82.2283 20.8767 82.1502 20.9418 82.033 21.072L75.9981 28.0443C75.8289 28.2396 75.7442 28.3893 75.7442 28.4935C75.7442 28.6497 75.8679 28.7279 76.1153 28.7279H82.3455ZM88.8309 24.4507H93.3033C94.5533 24.4507 95.4582 24.7762 96.0181 25.4272C96.5779 26.0782 96.8579 27.0808 96.8579 28.4349C96.8579 29.8411 96.5909 30.9022 96.0571 31.6183C95.5233 32.3344 94.5728 32.6925 93.2057 32.6925H90.491C89.2931 32.6925 88.4143 32.3865 87.8544 31.7746C87.2945 31.1496 87.0146 30.2056 87.0146 28.9427V22.5563C87.0146 21.4756 87.2945 20.6163 87.8544 19.9783C88.4273 19.3403 89.2541 19.0213 90.3347 19.0213H96.1938V20.5056H90.9011C90.2371 20.5056 89.7228 20.6879 89.3582 21.0524C89.0067 21.417 88.8309 21.9443 88.8309 22.6344V24.4507ZM88.8309 25.935V29.0013C88.8309 29.7695 88.9806 30.3293 89.2801 30.6809C89.5926 31.0324 90.1394 31.2082 90.9206 31.2082H92.7565C93.5768 31.2082 94.1497 30.9803 94.4752 30.5246C94.8007 30.0689 94.9634 29.3724 94.9634 28.4349C94.9634 27.5756 94.7876 26.9441 94.4361 26.5405C94.0846 26.1368 93.4596 25.935 92.5612 25.935H88.8309Z" fill="white"/>
</svg>
