<svg width="56" height="56" viewBox="0 0 56 56" fill="none" xmlns="http://www.w3.org/2000/svg">
<g clip-path="url(#clip0_421_948)">
<path fill-rule="evenodd" clip-rule="evenodd" d="M41.5563 3.53694C41.4661 3.5726 38.5622 4.81149 35.1032 6.29013C30.9637 8.0596 28.7144 9.07734 28.5222 9.26743C27.9899 9.79429 27.9638 10.1168 28.0279 15.3878C28.0704 18.8861 28.1338 20.5794 28.2533 21.4083C29.0772 27.1231 31.3032 30.9908 35.902 34.6983C36.9375 35.5331 39.6232 37.3556 40.7303 37.9746C42.0625 38.7197 42.3888 38.6251 45.4103 36.6184C51.92 32.2952 54.7701 28.0963 55.7343 21.4083C55.8538 20.5794 55.9172 18.8861 55.9597 15.3878C56.0238 10.1168 55.9977 9.79429 55.4654 9.26743C55.1133 8.91896 42.7 3.56866 42.1084 3.51037C41.895 3.48937 41.6465 3.50129 41.5563 3.53694ZM47.2967 9.36805L52.5152 11.6061L52.4619 16.1493C52.4153 20.1169 52.38 20.8452 52.184 21.8972C51.3306 26.4797 49.1195 29.7583 44.7959 32.8527C43.4043 33.8486 42.1655 34.6378 41.9938 34.6378C41.7146 34.6378 39.1484 32.8918 37.7226 31.7316C36.688 30.8899 35.0196 29.1357 34.3489 28.1847C33.197 26.5513 32.265 24.3096 31.8933 22.2785C31.5695 20.5081 31.4938 19.2073 31.4938 15.4112V11.5979L36.7165 9.34793C39.5889 8.11046 41.9704 7.10519 42.0087 7.11394C42.047 7.1228 44.4266 8.13715 47.2967 9.36805ZM2.67349 14.119C1.97272 14.2912 1.71328 14.4357 1.11719 14.985C0.528752 15.5275 0.273361 16.0039 0.108314 16.8671C-0.0810141 17.857 -0.00215471 49.5207 0.191002 50.0843C0.495502 50.9726 1.55305 52.0047 2.43199 52.2716C3.10902 52.477 52.8786 52.477 53.5556 52.2716C54.4362 52.0043 55.4964 50.9684 55.7941 50.0843C55.8966 49.7803 55.94 47.9983 55.9657 43.0597L56 36.4425L55.7508 35.9503C55.4827 35.4209 54.7864 34.966 54.2438 34.966C53.7027 34.966 53.0048 35.4209 52.7399 35.9462L52.4938 36.4342V42.7001V48.966H27.9938H3.4938V38.4683V27.9704L13.3649 27.9409C23.0463 27.9118 23.2433 27.907 23.6188 27.69C24.0367 27.4485 24.4938 26.6785 24.4938 26.216C24.4938 25.6749 24.0389 24.977 23.5136 24.7121L23.0255 24.466H13.2597H3.4938V20.9683V17.4704L13.3649 17.4409C23.0463 17.4118 23.2433 17.407 23.6188 17.19C24.0367 16.9485 24.4938 16.1785 24.4938 15.716C24.4938 15.1749 24.0389 14.477 23.5136 14.2121L23.0255 13.966L13.123 13.9753C5.68699 13.9823 3.08419 14.018 2.67349 14.119ZM46.6535 14.1239C46.4191 14.2094 46.1642 14.3442 46.0871 14.4235C46.01 14.5027 44.7159 16.108 43.2114 17.9907C41.7068 19.8736 40.4379 21.4186 40.3917 21.4241C40.3454 21.4296 39.7641 20.628 39.0998 19.6426C37.9877 17.9928 37.8522 17.8348 37.3862 17.6439C36.7919 17.4006 36.2974 17.4557 35.7468 17.8267C35.2693 18.1486 34.9359 18.9279 35.0395 19.4803C35.152 20.0795 38.8995 25.6604 39.372 25.9325C39.8053 26.1819 40.493 26.2153 40.9813 26.0107C41.2446 25.9002 42.2836 24.6776 45.0174 21.2615C47.0421 18.7312 48.7712 16.4764 48.8598 16.2508C49.3709 14.9498 48.0034 13.6315 46.6535 14.1239ZM7.97402 35.2121C7.44869 35.477 6.9938 36.1749 6.9938 36.716C6.9938 37.1785 7.45088 37.9485 7.8688 38.19C8.234 38.4011 8.43569 38.4113 12.2438 38.4113C16.0519 38.4113 16.2536 38.4011 16.6188 38.19C17.0367 37.9485 17.4938 37.1785 17.4938 36.716C17.4938 36.1749 17.0389 35.477 16.5136 35.2121C16.0356 34.971 15.9481 34.966 12.2438 34.966C8.53949 34.966 8.45199 34.971 7.97402 35.2121Z" fill="#97CC2F"/>
</g>
<defs>
<clipPath id="clip0_421_948">
<rect width="56" height="56" fill="white"/>
</clipPath>
</defs>
</svg>
