<svg width="24" height="24" viewBox="0 0 24 24" fill="none" xmlns="http://www.w3.org/2000/svg">
<path d="M19.3111 16.1737C19.2248 16.1078 19.1356 16.0396 19.0521 15.9723C18.6091 15.6158 18.1377 15.2871 17.6819 14.9693C17.5873 14.9034 17.4926 14.8374 17.3984 14.7713C16.8145 14.3611 16.2895 14.1618 15.7935 14.1618C15.1255 14.1618 14.5431 14.5309 14.0624 15.2588C13.8494 15.5815 13.591 15.7383 13.2726 15.7383C13.0843 15.7383 12.8703 15.6846 12.6368 15.5786C10.752 14.7239 9.40612 13.4134 8.63649 11.6837C8.26445 10.8476 8.38506 10.3011 9.03982 9.85634C9.41163 9.60399 10.1037 9.13419 10.0547 8.23453C9.99917 7.2129 7.74499 4.13892 6.79522 3.78978C6.3931 3.6419 5.9706 3.64053 5.53719 3.78633C4.44535 4.15338 3.66183 4.79798 3.27113 5.65033C2.89358 6.47392 2.91063 7.44097 3.32044 8.44693C4.50517 11.3554 6.17083 13.8912 8.27134 15.9838C10.3274 18.0322 12.8544 19.7102 15.7822 20.9709C16.046 21.0844 16.3228 21.1464 16.525 21.1915C16.5939 21.207 16.6533 21.2202 16.6967 21.2321C16.7205 21.2386 16.7451 21.2421 16.7697 21.2423L16.7928 21.2425C16.7929 21.2425 16.7928 21.2425 16.7929 21.2425C18.17 21.2425 19.8234 19.9841 20.3312 18.5496C20.7761 17.2934 19.9638 16.6726 19.3111 16.1737Z" stroke="#97CC2F"/>
</svg>
