<svg width="56" height="56" viewBox="0 0 56 56" fill="none" xmlns="http://www.w3.org/2000/svg">
<g clip-path="url(#clip0_421_947)">
<path fill-rule="evenodd" clip-rule="evenodd" d="M26.7665 0.182443C25.7279 0.453912 25.2774 0.761474 23.0646 2.70955C21.418 4.15921 21.0081 4.46841 20.7337 4.46841C20.5505 4.46841 19.1136 4.36527 17.5406 4.23927C13.9731 3.95347 13.0458 3.98891 12.063 4.44894C11.2046 4.85057 10.2898 5.68171 9.88261 6.42973C9.72052 6.72777 9.14433 8.3894 8.60227 10.1223C8.00858 12.0206 7.53991 13.3383 7.42321 13.4372C7.31678 13.5274 6.05941 14.2903 4.62922 15.1325C2.88436 16.1599 1.83775 16.8498 1.44783 17.2293C0.377377 18.2714 -0.191811 19.9813 0.0585487 21.4028C0.122752 21.7675 0.721142 23.3921 1.38855 25.0141L2.60185 27.9624L1.39216 30.8956C0.613627 32.7834 0.139705 34.0883 0.0623768 34.5564C-0.166764 35.9436 0.295564 37.4385 1.29033 38.5268C1.69513 38.9699 2.48853 39.5017 4.89314 40.942C6.72988 42.0423 8.0158 42.8807 8.07344 43.0154C8.1266 43.14 8.44652 44.3985 8.78427 45.8122C9.4905 48.7681 9.641 49.2121 10.1905 49.9608C10.6832 50.6319 11.2507 51.0905 12.0292 51.4469C13.1552 51.9625 13.5398 51.9846 16.938 51.7302C18.6441 51.6024 20.2368 51.4725 20.4774 51.4416C20.9115 51.3858 20.9313 51.3998 23.0478 53.2523C24.3581 54.3992 25.4216 55.2397 25.8058 55.4316C26.7271 55.8922 27.778 56.0533 28.739 55.8816C29.974 55.6608 30.5735 55.2813 32.8915 53.2523C35.0079 51.3998 35.0277 51.3858 35.4618 51.4416C35.7024 51.4725 37.2952 51.6024 39.0013 51.7302C41.4806 51.9158 42.227 51.9379 42.72 51.8402C44.1438 51.5577 45.5425 50.5256 46.151 49.308C46.3282 48.9534 46.7175 47.5992 47.1086 45.9762C47.4711 44.4723 47.8115 43.1401 47.8649 43.0159C47.9226 42.8819 49.1532 42.0813 50.891 41.0471C52.5019 40.0886 54.0816 39.066 54.4015 38.7748C55.4249 37.8431 56.0814 36.1145 55.9157 34.7882C55.8212 34.0316 55.6668 33.5985 54.393 30.516L53.3376 27.9619L54.5351 25.0472C55.1937 23.4441 55.7928 21.8226 55.8663 21.444C56.1385 20.0425 55.5886 18.3165 54.534 17.2619C54.1602 16.8882 53.035 16.1497 50.9363 14.9009C49.2567 13.9015 47.8587 13.0033 47.8296 12.9049C47.8004 12.8066 47.5023 11.5801 47.1669 10.1792C46.4531 7.19699 46.2536 6.6184 45.6958 5.91271C45.1242 5.18963 44.6574 4.81677 43.848 4.43669C42.8972 3.99033 41.939 3.95566 38.3986 4.23927C36.8256 4.36527 35.3888 4.46841 35.2055 4.46841C34.931 4.46841 34.5209 4.15877 32.8703 2.70529C30.6526 0.752506 30.1173 0.395287 29.0423 0.150724C28.1231 -0.0582912 27.6632 -0.0519475 26.7665 0.182443ZM28.7052 3.45669C28.8972 3.56191 29.9994 4.48482 31.1544 5.50747C32.3094 6.53013 33.3819 7.45271 33.5378 7.55749C33.913 7.81004 34.2918 7.80358 38.4948 7.47426C42.3845 7.16943 42.4983 7.17752 43.0424 7.79713C43.3157 8.10852 43.4485 8.52612 43.988 10.7709C44.3332 12.2072 44.692 13.6948 44.7852 14.0767C44.8783 14.4584 45.0747 14.9135 45.2215 15.0878C45.3682 15.2623 47.0035 16.3147 48.8554 17.4264C50.9534 18.686 52.3 19.5622 52.4281 19.7511C52.5694 19.9595 52.6325 20.2425 52.6297 20.6559C52.6264 21.1712 52.4408 21.702 51.3365 24.355C50.6273 26.0586 50.0208 27.6147 49.9887 27.8129C49.9416 28.1027 50.2003 28.829 51.3093 31.5206C52.7244 34.9553 52.8377 35.3642 52.5347 35.9465C52.2828 36.4306 52.0108 36.6179 48.5969 38.6585C46.2792 40.0438 45.2686 40.7076 45.1298 40.9358C45.0222 41.1129 44.6095 42.6147 44.2127 44.2733C43.816 45.9317 43.3955 47.4984 43.2783 47.7547C42.9968 48.37 42.5205 48.6549 41.7728 48.6555C41.4539 48.6557 39.6196 48.5326 37.6965 48.3819C34.6625 48.1441 34.153 48.1277 33.8465 48.2581C33.6521 48.3408 32.5579 49.2331 31.4149 50.2412C30.272 51.2492 29.1766 52.1969 28.9807 52.3472C28.5186 52.7017 27.7966 52.788 27.3016 52.5478C27.0975 52.4488 25.897 51.4581 24.6337 50.3463C23.1641 49.0529 22.2057 48.2882 21.9728 48.2233C21.7235 48.1539 20.5333 48.2058 18.1994 48.3879C14.2033 48.6998 13.735 48.7098 13.3165 48.4935C12.7245 48.1874 12.5835 47.8197 11.782 44.4915C11.3565 42.7249 10.9233 41.1305 10.8193 40.9483C10.6783 40.7013 9.80824 40.1251 7.40527 38.6873C3.70796 36.4748 3.74066 36.4968 3.46131 36.0387C3.07905 35.4118 3.16721 35.0708 4.62999 31.5206C5.73577 28.8367 5.9975 28.1022 5.95091 27.8146C5.91886 27.6173 5.29455 26.012 4.5636 24.2472C3.39481 21.4259 3.23983 20.979 3.27899 20.5434C3.30349 20.271 3.41144 19.9139 3.51895 19.7499C3.64222 19.5616 4.89872 18.7455 6.92577 17.5369C9.25163 16.1501 10.1801 15.5391 10.2928 15.3213C10.3783 15.1558 10.94 13.4542 11.541 11.5401C12.7075 7.82393 12.8351 7.56022 13.5852 7.31271C13.8409 7.22827 14.8394 7.27005 17.4445 7.47426C21.6474 7.80358 22.0263 7.81004 22.4015 7.55749C22.5573 7.45271 23.6298 6.53013 24.7848 5.50747C25.9398 4.48482 27.042 3.56191 27.2341 3.45669C27.4263 3.35147 27.7572 3.26529 27.9696 3.26529C28.182 3.26529 28.513 3.35147 28.7052 3.45669ZM26.2251 10.0559C20.2063 10.6355 14.6889 14.3981 11.9565 19.7863C9.28717 25.0498 9.28717 30.918 11.9565 36.1818C13.6 39.4229 16.4334 42.2804 19.6445 43.9354C26.0132 47.2177 33.4402 46.5326 39.0712 42.1433C40.6328 40.9259 42.2659 39.1076 43.2656 37.4726C47.6957 30.2279 46.5949 21.071 40.5842 15.1681C37.57 12.2081 33.7843 10.4524 29.5498 10.0509C28.2159 9.92437 27.5813 9.92535 26.2251 10.0559ZM30.3082 13.394C36.5843 14.3894 41.6163 19.4765 42.5761 25.7965C43.2751 30.3987 41.7415 35.0341 38.4085 38.3933C31.3048 45.5528 19.2764 43.5992 14.7339 34.548C14.2285 33.5411 13.8891 32.5976 13.5544 31.2701C13.2892 30.2176 13.2637 29.9306 13.2637 27.984C13.2637 26.0375 13.2892 25.7505 13.5544 24.698C14.0475 22.7421 14.6109 21.4426 15.6626 19.8356C17.8779 16.4507 21.5432 14.077 25.6181 13.3885C26.8412 13.1819 28.9865 13.1843 30.3082 13.394ZM35.6259 21.5422C35.4755 21.601 33.3227 23.6766 30.8418 26.1547L26.3312 30.6606L23.4043 27.7446C20.9077 25.2573 20.4182 24.8177 20.0744 24.7549C18.9254 24.5446 17.8663 25.7177 18.2246 26.8036C18.4088 27.3616 25.4941 34.3894 25.9735 34.4896C26.8031 34.663 26.7341 34.7211 32.3199 29.1493C36.6645 24.8154 37.6195 23.8099 37.7108 23.4723C38.0428 22.2453 36.7915 21.0869 35.6259 21.5422Z" fill="#97CC2F"/>
</g>
<defs>
<clipPath id="clip0_421_947">
<rect width="56" height="56" fill="white"/>
</clipPath>
</defs>
</svg>
