<svg width="24" height="24" viewBox="0 0 24 24" fill="none" xmlns="http://www.w3.org/2000/svg">
<path fill-rule="evenodd" clip-rule="evenodd" d="M9.03555 0.0255991C5.3228 0.32545 2.17949 2.96295 1.2818 6.53176C1.04666 7.46668 1.03185 7.66733 1.00721 10.2548C0.9781 13.3161 1.02729 14.0463 1.33861 15.1741C1.88854 17.1662 3.2699 19.0133 5.06076 20.1511C5.34777 20.3335 6.13523 20.7429 6.36481 20.8292L6.49221 20.877L6.50589 22.3078C6.51958 23.7324 6.52009 23.739 6.62915 23.8549C6.76233 23.9964 6.94484 24.0374 7.11752 23.9646C7.18844 23.9348 7.843 23.3714 8.57215 22.7126L9.89778 21.5149L12.5587 21.4865C15.3544 21.4567 15.562 21.4422 16.4444 21.2157C19.507 20.4296 21.9639 17.971 22.7163 14.9392C22.9706 13.9144 22.9789 13.7804 22.9789 10.7355C22.9789 7.68786 22.9699 7.54423 22.7148 6.53176C21.9424 3.46628 19.4639 1.01792 16.3482 0.242596C15.4769 0.025787 15.3012 0.0152659 12.3274 0.00211456C10.7626 -0.0047899 9.28126 0.00577816 9.03555 0.0255991ZM15.5017 0.980106C17.2585 1.3072 18.5572 1.96721 19.7516 3.13993C20.8067 4.17588 21.4909 5.36486 21.847 6.7815C22.0754 7.69002 22.0855 7.85949 22.085 10.806C22.0846 13.4833 22.081 13.5958 21.9789 14.1286C21.4017 17.1396 19.2803 19.4841 16.3952 20.2997C15.4837 20.5574 15.3789 20.5649 12.398 20.5858C9.94236 20.603 9.60989 20.614 9.50582 20.6813C9.44115 20.7231 8.95076 21.1549 8.41602 21.641C7.88128 22.1271 7.43161 22.5247 7.4167 22.5247C7.4018 22.5247 7.38962 22.0521 7.38962 21.4743C7.38962 20.2149 7.41623 20.277 6.76694 20.0204C4.92547 19.2924 3.33155 17.7227 2.53379 15.8517C2.18085 15.024 2.0133 14.3277 1.93175 13.35C1.8479 12.3441 1.89803 8.03045 2.00032 7.45175C2.30416 5.73305 3.03631 4.32651 4.2448 3.13993C5.62024 1.78952 7.33356 1.02646 9.27068 0.901526C9.41294 0.89232 10.7885 0.890489 12.3274 0.89744C14.566 0.907538 15.2007 0.924071 15.5017 0.980106ZM12.3708 3.59258C12.1959 3.76735 12.1822 4.01915 12.3392 4.1756C12.3974 4.23356 12.646 4.35056 12.8917 4.43558C15.3738 5.29427 17.2787 7.19764 18.1155 9.65521C18.1991 9.90062 18.3081 10.1468 18.3579 10.2024C18.6162 10.4906 19.0992 10.2763 19.0992 9.87343C19.0992 9.68715 18.7824 8.82893 18.4985 8.24613C17.4614 6.11717 15.5156 4.39495 13.2751 3.62296C12.6758 3.41644 12.5514 3.41226 12.3708 3.59258ZM7.42851 4.711C6.71732 5.29488 5.82702 6.1151 5.7054 6.29847C5.42738 6.71767 5.35059 6.99117 5.3497 7.56508C5.34838 8.40156 5.5117 8.88097 6.11788 9.8196C6.88168 11.0024 7.83802 12.2061 8.70284 13.0733C9.79832 14.1718 11.6333 15.4701 13.6495 16.5732C14.5067 17.0422 14.7455 17.1233 15.2702 17.1233C15.7554 17.1233 16.1685 17.0011 16.5552 16.7432C16.9124 16.505 17.028 16.3621 17.6919 15.3385C18.1529 14.6277 18.2254 14.4897 18.2272 14.3182C18.2286 14.1794 18.201 14.0927 18.1352 14.0293C17.9597 13.8603 15.1739 12.0826 14.9486 11.9959C14.366 11.7716 13.7442 11.9875 13.311 12.5644L13.1897 12.726L12.8174 12.5942C11.4105 12.096 10.5708 11.2949 9.99216 9.89884L9.82884 9.50472L10.1331 9.18993C10.5176 8.79215 10.6013 8.60737 10.6033 8.1522C10.6045 7.88377 10.5804 7.74948 10.5022 7.58805C10.403 7.38341 8.53871 5.18877 8.11862 4.78216C7.86308 4.53482 7.66764 4.51463 7.42851 4.711ZM12.6764 5.63498C12.4181 5.74832 12.3501 6.15188 12.5578 6.33961C12.604 6.38132 12.8197 6.48 13.0371 6.55886C13.7405 6.81386 14.301 7.17186 14.8404 7.71069C15.3948 8.26436 15.7482 8.82343 16.0189 9.57517C16.0995 9.79903 16.1962 9.97699 16.2676 10.0331C16.5087 10.2226 16.8949 10.0899 16.9597 9.79536C16.9799 9.70326 16.9543 9.54568 16.8853 9.33798C16.4359 7.98625 15.4497 6.80526 14.1615 6.07649C13.9099 5.93417 13.1619 5.63578 12.9623 5.59806C12.8847 5.58341 12.7561 5.60004 12.6764 5.63498ZM8.68741 6.77478C9.19709 7.35922 9.64426 7.89781 9.68113 7.97169C9.79766 8.20504 9.72322 8.35336 9.29307 8.74443C9.04923 8.96612 8.88906 9.15015 8.87185 9.2284C8.83475 9.39716 9.11662 10.2022 9.41905 10.7913C10.1065 12.1304 10.9982 12.878 12.6331 13.4861C12.8917 13.5823 13.2045 13.6713 13.328 13.6838C13.5926 13.7108 13.657 13.666 13.9308 13.2645C14.2255 12.8323 14.4357 12.7199 14.6936 12.8566C14.8544 12.9418 17.0463 14.3587 17.1154 14.4222C17.1656 14.4683 17.1026 14.5933 16.7807 15.0867C16.1472 16.0577 15.9506 16.2047 15.2825 16.2064C14.8858 16.2074 14.8636 16.2014 14.436 15.9789C13.924 15.7123 12.6869 14.9809 12.0453 14.5654C9.83684 13.1349 8.51228 11.8023 6.9517 9.44065C6.3682 8.55773 6.24203 8.22974 6.2392 7.58857C6.23662 6.99553 6.31901 6.85867 7.07487 6.20096C7.41214 5.9075 7.70446 5.67744 7.72445 5.68979C7.74439 5.7021 8.17774 6.19039 8.68741 6.77478ZM12.7195 7.47551C12.4658 7.60148 12.4017 7.94746 12.5929 8.15938C12.6314 8.20212 12.784 8.2823 12.9321 8.33758C13.4663 8.53711 13.976 9.04287 14.1651 9.56104C14.2226 9.71852 14.3222 9.88869 14.3865 9.93918C14.548 10.066 14.7843 10.0569 14.9465 9.91763C15.1493 9.74337 15.1294 9.49293 14.8713 8.97063C14.5825 8.38624 14.1106 7.91326 13.5501 7.64639C13.0527 7.40947 12.9111 7.38035 12.7195 7.47551Z" fill="#97CC2F"/>
</svg>
