<svg width="24" height="24" viewBox="0 0 24 24" fill="none" xmlns="http://www.w3.org/2000/svg">
<g clip-path="url(#clip0_426_969)">
<path d="M17.507 14.307L17.498 14.382C15.299 13.286 15.069 13.14 14.785 13.566C14.588 13.861 14.014 14.53 13.841 14.728C13.666 14.923 13.492 14.938 13.195 14.803C12.895 14.653 11.932 14.338 10.792 13.318C9.90402 12.523 9.30802 11.548 9.13202 11.248C8.83902 10.742 9.45202 10.67 10.01 9.61402C10.11 9.40402 10.059 9.23902 9.98501 9.09002C9.91001 8.94002 9.31302 7.47002 9.06302 6.88402C8.82302 6.30002 8.57602 6.37402 8.39102 6.37402C7.81502 6.32402 7.39402 6.33202 7.02302 6.71802C5.40902 8.49202 5.81602 10.322 7.19702 12.268C9.91102 15.82 11.357 16.474 14.001 17.382C14.715 17.609 15.366 17.577 15.881 17.503C16.455 17.412 17.648 16.782 17.897 16.077C18.152 15.372 18.152 14.787 18.077 14.652C18.003 14.517 17.807 14.442 17.507 14.307Z" fill="#97CC2F"/>
<path d="M20.52 3.44782C12.831 -3.98519 0.106 1.40581 0.101 11.8918C0.101 13.9878 0.65 16.0318 1.696 17.8368L0 23.9988L6.335 22.3468C14.24 26.6168 23.996 20.9468 24 11.8978C24 8.72182 22.76 5.73282 20.505 3.48682L20.52 3.44782ZM22.002 11.8648C21.996 19.4978 13.617 24.2648 6.99 20.3688L6.63 20.1548L2.88 21.1298L3.885 17.4848L3.646 17.1098C-0.478 10.5448 4.26 1.96482 12.072 1.96482C14.726 1.96482 17.217 2.99982 19.093 4.87482C20.968 6.73382 22.002 9.22482 22.002 11.8648Z" fill="#97CC2F"/>
</g>
<defs>
<clipPath id="clip0_426_969">
<rect width="24" height="24" fill="white"/>
</clipPath>
</defs>
</svg>
