<?xml version="1.0" encoding="UTF-8"?><!DOCTYPE svg PUBLIC "-//W3C//DTD SVG 1.1//EN" "http://www.w3.org/Graphics/SVG/1.1/DTD/svg11.dtd"><svg xmlns="http://www.w3.org/2000/svg" xmlns:xlink="http://www.w3.org/1999/xlink"><defs>
        <clipPath id="a">
            <path d="M0 0h56v56H0z"/>
        </clipPath>
    
        <clipPath id="a">
            <path d="M0 0h56v56H0z"/>
        </clipPath>
    
        <clipPath id="a">
            <path d="M0 0h24v24H0z"/>
        </clipPath>
    </defs><symbol id="icon-Logo" viewBox="0 0 102 47">
    <path d="M27.641 14.746h73.634v22.299H27.641z"/>
    <path d="M68.468 14.746h32.807v22.299H68.468z"/>
    <path d="M15.597 46.308c-2.576 0-4.799-.36-6.669-1.08-1.87-.755-3.422-1.78-4.657-3.075-1.2-1.331-2.1-2.896-2.699-4.695-.564-1.834-.847-3.849-.847-6.043V10.388L10.44.725v29.988c0 1.511.16 2.806.477 3.886.353 1.043.85 2.176 1.415 2.86 1.158 1.25 1.822 1.564 3.372 1.564 2.01 0 2.319-.347 3.554-1.606 1.27-1.259 1.762-3.682 1.762-6.704V.725l9.714 9.663v21.027c0 2.194-.3 4.209-.9 6.043-.6 1.835-1.517 3.418-2.752 4.749-1.235 1.295-2.805 2.302-4.71 3.021-1.905.72-4.163 1.08-6.774 1.08z"/>
    <path d="M35.16 32.012V24.15c0-1.515.37-2.628 1.113-3.34.742-.726 1.878-1.09 3.41-1.09h1.344v1.578h-.997c-1.051 0-1.801.27-2.25.811-.448.541-.672 1.384-.672 2.528v7.375H35.16zm17.027 0h-6.424c-1.716 0-2.883-.502-3.502-1.507-.618-1.02-.928-2.551-.928-4.592 0-2.288.418-3.912 1.253-4.87.835-.975 2.28-1.462 4.337-1.462 1.778 0 3.154.364 4.128 1.09.974.712 1.461 1.94 1.461 3.688 0 .742-.139 1.29-.417 1.646-.279.34-.75.51-1.415.51H43.35c0 .573.031 1.068.093 1.485.077.402.209.804.394 1.206.186.402.472.711.858.928.402.2.897.301 1.485.301h6.006v1.577zm-8.836-7.073h6.564c.37 0 .556-.209.556-.627v-.092c0-2.041-1.175-3.062-3.525-3.062-1.283 0-2.203.286-2.76.858-.556.557-.835 1.531-.835 2.923zm11.616-5.219h6.47c1.052 0 1.848.302 2.39.905.54.603.811 1.422.811 2.458v7.074c0 .65-.147 1.12-.44 1.415-.294.293-.789.44-1.485.44H57.24c-1.113 0-1.925-.301-2.435-.904-.51-.619-.766-1.57-.766-2.853 0-2.49 1.067-3.734 3.2-3.734h5.451v-1.46c0-1.176-.58-1.764-1.74-1.764h-5.983V19.72zm7.723 6.378h-5.079c-.572 0-.974.186-1.206.557-.217.355-.325.889-.325 1.6 0 .711.108 1.253.325 1.624.232.37.634.556 1.206.556h4.43c.433 0 .65-.208.65-.626V26.1z"/>
    <path d="M82.346 32.693v-2.48H75.47c-.443 0-.8-.118-1.074-.352-.274-.248-.41-.632-.41-1.153 0-.481.208-.957.625-1.425l6.796-7.676c.443-.495.963-.742 1.562-.742.43 0 .736.11.918.332.183.208.274.527.274.957v8.574h1.582v1.484h-1.582v2.48h-1.817zm0-3.965v-7.773c0-.052-.027-.078-.079-.078-.039 0-.117.065-.234.195l-6.035 6.972c-.17.196-.254.345-.254.45 0 .156.124.234.371.234h6.23zm6.485-4.277h4.472c1.25 0 2.155.325 2.715.976s.84 1.654.84 3.008c0 1.406-.267 2.467-.8 3.183-.535.716-1.485 1.075-2.852 1.075H90.49c-1.198 0-2.077-.306-2.637-.918-.56-.625-.84-1.57-.84-2.832v-6.387c0-1.08.28-1.94.84-2.578.573-.638 1.4-.957 2.48-.957h5.86v1.485H90.9c-.664 0-1.178.182-1.543.546-.351.365-.527.892-.527 1.582v1.817zm0 1.484v3.066c0 .768.15 1.328.45 1.68.312.351.858.527 1.64.527h1.835c.82 0 1.394-.228 1.72-.683.325-.456.487-1.153.487-2.09 0-.86-.175-1.49-.527-1.894-.351-.404-.976-.606-1.875-.606h-3.73z"/>
</symbol><symbol id="icon-arrow" viewBox="0 0 19 11">
    <path d="M1.64 1l8 8 8-8"/>
</symbol><symbol id="icon-delivery" viewBox="0 0 56 56">
    <path fill-rule="evenodd" clip-rule="evenodd" d="M5.836 8.88c-.473.274-.848.946-.845 1.514.002.51.409 1.19.873 1.463.38.224.48.225 14.462.255l14.08.029.03 6.498c.03 6.411.033 6.502.26 6.806.127.17.397.407.602.528.358.21.62.22 7.508.273l7.137.055 1.259 1.63 1.258 1.631-.028 4.55-.029 4.548-1.614.03-1.614.03-.122-.303c-.9-2.248-1.964-3.494-3.704-4.33-1.284-.616-2.084-.778-3.475-.703-1.863.1-3.316.748-4.622 2.06-.724.726-1.434 1.89-1.696 2.776l-.13.44H24.98l-.246-.681c-.733-2.023-2.419-3.663-4.432-4.311-.994-.32-2.76-.392-3.774-.155-1.978.464-3.779 1.894-4.62 3.67a34.389 34.389 0 0 0-.56 1.231l-.12.301H8.754c-2.84 0-3.044.048-3.495.817-.327.558-.342 1.046-.05 1.637.43.866.476.878 3.465.915l2.646.032.129.405c.523 1.637 1.922 3.27 3.462 4.04 1.228.615 2.298.84 3.631.766 2.765-.154 5.073-1.818 6.125-4.416l.304-.75h10.43l.358.823c.875 2.011 2.4 3.437 4.34 4.058 1.014.325 2.59.392 3.654.155 2.331-.518 4.32-2.26 5.096-4.463l.201-.574 2.9-.054c3.188-.06 3.166-.056 3.728-.808.221-.297.225-.41.225-6.556V28.49l-.245-.415c-.134-.228-.922-1.282-1.75-2.342l-1.505-1.928-2.843-5.58c-2.829-5.552-2.847-5.583-3.326-5.835-.478-.25-.52-.252-4.39-.252h-3.908l-.042-1.122c-.045-1.23-.207-1.663-.784-2.093l-.309-.23-15.277-.026-15.277-.025-.411.239zm40.278 10.256c.963 1.925 1.75 3.524 1.75 3.555 0 .03-2.24.055-4.976.055H37.91v-7.109H44.364l1.75 3.5zM3.743 16.102c-1.101.635-1.117 2.165-.031 2.97.307.227.362.229 8.367.229 7.442 0 8.085-.015 8.405-.19.579-.316.857-.811.857-1.525 0-.67-.184-1.025-.753-1.45-.298-.223-.413-.226-8.36-.252l-8.06-.027-.425.245zm-2.418 6.746c-.73.177-1.194.703-1.314 1.49-.08.521.269 1.279.748 1.628.304.222.432.226 8.258.258 5.407.023 8.077-.004 8.35-.084.778-.225 1.305-1.23 1.082-2.058-.144-.533-.74-1.107-1.279-1.232-.5-.116-15.366-.118-15.845-.002zm2.485 7.08c-.538.265-.826.743-.876 1.452-.05.715.218 1.214.852 1.587.364.214.578.226 4.43.259 2.226.02 4.31.003 4.63-.036 1.725-.21 2.19-2.476.667-3.252-.34-.173-.803-.191-4.86-.19-3.907.003-4.53.026-4.843.18zm15.894 7.257c1.33.645 2.18 2.295 1.911 3.712-.153.807-.37 1.249-.895 1.82-2.159 2.35-6.106.824-6.106-2.361 0-2.597 2.744-4.306 5.09-3.17zm24.256.082c1.6.87 2.285 2.953 1.5 4.565-.375.773-1.177 1.519-1.942 1.806-.856.322-2.04.275-2.803-.111-2.197-1.112-2.667-3.995-.928-5.693a3.558 3.558 0 0 1 4.173-.567z"/>
</symbol><symbol id="icon-mail" viewBox="0 0 24 24">
    <path d="M3 7.583v10.329c0 .463.353.838.788.838h15.424c.435 0 .788-.375.788-.838V7.531L12.4 14.5h-1.632L3 7.583z"/>
    <path d="M11.444 13.004L3.755 6H19.02l-7.576 7.004z"/>
</symbol><symbol id="icon-payment" viewBox="0 0 56 56">
    <g clip-path="url(#a)">
        <path fill-rule="evenodd" clip-rule="evenodd" d="M41.556 3.537c-.09.036-2.994 1.274-6.453 2.753-4.14 1.77-6.389 2.787-6.58 2.977-.533.527-.56.85-.495 6.12.042 3.5.106 5.192.225 6.021.824 5.715 3.05 9.583 7.649 13.29 1.035.835 3.721 2.658 4.828 3.277 1.333.745 1.659.65 4.68-1.357 6.51-4.323 9.36-8.522 10.324-15.21.12-.829.183-2.522.226-6.02.064-5.271.038-5.594-.495-6.12-.352-.349-12.765-5.7-13.357-5.758-.213-.02-.461-.009-.552.027zm5.74 5.831l5.22 2.238-.054 4.543c-.047 3.968-.082 4.696-.278 5.748-.853 4.583-3.064 7.861-7.388 10.956-1.392.996-2.63 1.785-2.802 1.785-.28 0-2.846-1.746-4.271-2.906-1.035-.842-2.703-2.596-3.374-3.547-1.152-1.634-2.084-3.875-2.456-5.906-.323-1.77-.4-3.072-.4-6.868v-3.813l5.224-2.25c2.872-1.238 5.253-2.243 5.292-2.234a672.05 672.05 0 0 1 5.288 2.254zM2.674 14.12c-.7.172-.96.317-1.556.866-.588.543-.844 1.019-1.009 1.882-.189.99-.11 32.654.083 33.217.305.889 1.362 1.92 2.241 2.188.677.205 50.447.205 51.124 0 .88-.268 1.94-1.304 2.238-2.188.103-.304.146-2.086.172-7.024L56 36.443l-.25-.493c-.267-.53-.964-.984-1.506-.984-.541 0-1.24.455-1.504.98l-.246.488v12.532h-49V27.97l9.87-.03c9.682-.028 9.88-.033 10.255-.25.418-.242.875-1.012.875-1.474 0-.541-.455-1.239-.98-1.504l-.488-.246H3.494V17.47l9.87-.03c9.682-.028 9.88-.033 10.255-.25.418-.242.875-1.012.875-1.474 0-.541-.455-1.239-.98-1.504l-.488-.246-9.903.01c-7.436.006-10.039.042-10.45.143zm43.98.005c-.234.085-.489.22-.566.3-.077.079-1.371 1.684-2.876 3.567-1.504 1.883-2.773 3.428-2.82 3.433-.046.006-.627-.796-1.291-1.781-1.112-1.65-1.248-1.808-1.714-2-.594-.242-1.089-.187-1.64.184-.477.322-.81 1.1-.707 1.653.113.6 3.86 6.18 4.333 6.453.433.249 1.121.282 1.61.078.263-.11 1.302-1.333 4.035-4.75 2.025-2.53 3.754-4.785 3.843-5.01.51-1.301-.857-2.62-2.206-2.127zM7.974 35.212c-.525.265-.98.963-.98 1.504 0 .462.457 1.233.875 1.474.365.211.567.221 4.375.221s4.01-.01 4.375-.221c.418-.241.875-1.011.875-1.474 0-.541-.455-1.239-.98-1.504-.478-.241-.566-.246-4.27-.246-3.705 0-3.792.005-4.27.246z"/>
    </g>
    
</symbol><symbol id="icon-phone" viewBox="0 0 24 24">
    <path d="M19.311 16.174a12.706 12.706 0 0 1-.259-.202 24.786 24.786 0 0 0-1.37-1.003l-.284-.198c-.584-.41-1.108-.61-1.604-.61-.668 0-1.25.37-1.732 1.098-.213.322-.471.48-.79.48-.188 0-.402-.054-.635-.16-1.885-.855-3.23-2.166-4-3.895-.373-.836-.252-1.383.403-1.828.372-.252 1.064-.722 1.015-1.621-.056-1.022-2.31-4.096-3.26-4.445a1.85 1.85 0 0 0-1.258-.004c-1.092.367-1.875 1.012-2.266 1.864-.377.824-.36 1.791.05 2.797 1.184 2.908 2.85 5.444 4.95 7.537 2.056 2.048 4.583 3.726 7.511 4.987.264.113.54.175.743.22l.172.041c.024.007.048.01.073.01h.023c1.377 0 3.03-1.258 3.538-2.692.445-1.257-.367-1.877-1.02-2.376z"/>
</symbol><symbol id="icon-quality" viewBox="0 0 56 56">
    <g clip-path="url(#a)">
        <path fill-rule="evenodd" clip-rule="evenodd" d="M26.767.182c-1.04.272-1.49.58-3.702 2.528-1.647 1.45-2.057 1.758-2.331 1.758-.184 0-1.62-.103-3.193-.229-3.568-.286-4.495-.25-5.478.21-.858.402-1.773 1.233-2.18 1.98-.162.299-.739 1.96-1.28 3.693-.594 1.899-1.063 3.216-1.18 3.315-.106.09-1.364.853-2.794 1.696-1.745 1.027-2.791 1.717-3.181 2.096-1.07 1.042-1.64 2.752-1.39 4.174.065.364.663 1.99 1.33 3.611l1.214 2.948-1.21 2.934C.614 32.783.14 34.088.062 34.556c-.229 1.388.234 2.883 1.228 3.97.405.444 1.199.976 3.603 2.416 1.837 1.1 3.123 1.939 3.18 2.073.054.125.374 1.383.711 2.797.707 2.956.857 3.4 1.406 4.149.493.67 1.06 1.13 1.84 1.486 1.125.515 1.51.538 4.908.283a168.7 168.7 0 0 0 3.54-.288c.433-.056.453-.042 2.57 1.81 1.31 1.147 2.374 1.988 2.758 2.18.921.46 1.972.621 2.933.45 1.235-.221 1.834-.6 4.152-2.63 2.117-1.852 2.137-1.866 2.57-1.81.241.03 1.834.16 3.54.288 2.48.186 3.226.208 3.719.11 1.424-.282 2.822-1.314 3.431-2.532.177-.355.566-1.709.958-3.332.362-1.504.703-2.836.756-2.96.058-.134 1.288-.935 3.026-1.969 1.61-.958 3.19-1.981 3.51-2.272 1.024-.932 1.68-2.66 1.515-3.987-.095-.756-.25-1.19-1.523-4.272l-1.055-2.554 1.197-2.915c.659-1.603 1.258-3.224 1.331-3.603.273-1.401-.277-3.127-1.332-4.182-.374-.374-1.499-1.112-3.598-2.361-1.68-1-3.077-1.898-3.106-1.996-.03-.098-.328-1.325-.663-2.726-.714-2.982-.913-3.56-1.471-4.266-.572-.723-1.039-1.096-1.848-1.476-.95-.447-1.909-.481-5.45-.198-1.572.126-3.01.23-3.193.23-.274 0-.684-.31-2.335-1.764C30.653.753 30.117.395 29.042.151c-.919-.21-1.379-.203-2.276.031zm1.938 3.275c.192.105 1.294 1.028 2.45 2.05 1.154 1.023 2.227 1.946 2.383 2.05.375.253.754.247 4.957-.083 3.89-.305 4.003-.296 4.547.323.274.312.407.73.946 2.974.345 1.436.704 2.924.797 3.306.093.381.29.837.437 1.01.146.175 1.782 1.228 3.633 2.34 2.098 1.259 3.445 2.135 3.573 2.324.141.208.205.491.202.905-.004.515-.19 1.046-1.294 3.699-.709 1.704-1.315 3.26-1.347 3.458-.047.29.211 1.016 1.32 3.708 1.415 3.434 1.529 3.843 1.226 4.425-.252.485-.524.672-3.938 2.712-2.318 1.386-3.328 2.05-3.467 2.278-.108.177-.52 1.679-.917 3.337-.397 1.659-.818 3.225-.935 3.482-.281.615-.758.9-1.505.9-.32 0-2.153-.122-4.077-.273-3.033-.238-3.543-.254-3.85-.124-.194.083-1.288.975-2.431 1.983s-2.238 1.956-2.434 2.106c-.462.355-1.184.441-1.68.2-.203-.098-1.404-1.089-2.667-2.2-1.47-1.294-2.428-2.059-2.661-2.124-.25-.07-1.44-.017-3.774.165-3.996.312-4.464.322-4.883.105-.591-.306-.732-.673-1.534-4.002-.425-1.766-.859-3.36-.963-3.543-.14-.247-1.01-.823-3.414-2.26-3.697-2.213-3.664-2.191-3.944-2.65-.382-.626-.294-.967 1.169-4.517 1.106-2.684 1.367-3.419 1.32-3.706-.031-.198-.655-1.803-1.386-3.568-1.17-2.821-1.324-3.268-1.285-3.704.024-.272.132-.63.24-.793.123-.188 1.38-1.005 3.407-2.213 2.326-1.387 3.254-1.998 3.367-2.216.085-.165.647-1.867 1.248-3.78 1.166-3.717 1.294-3.98 2.044-4.228.256-.085 1.254-.043 3.86.161 4.202.33 4.581.336 4.956.083.156-.104 1.229-1.027 2.384-2.05 1.155-1.022 2.257-1.945 2.45-2.05a1.82 1.82 0 0 1 .735-.192c.212 0 .543.086.735.192zm-2.48 6.599c-6.019.58-11.536 4.342-14.269 9.73-2.669 5.264-2.669 11.132 0 16.396 1.644 3.24 4.477 6.098 7.689 7.753 6.368 3.283 13.795 2.598 19.426-1.792 1.562-1.217 3.195-3.035 4.195-4.67 4.43-7.245 3.329-16.402-2.682-22.305-3.014-2.96-6.8-4.716-11.034-5.117-1.334-.127-1.969-.126-3.325.005zm4.083 3.338c6.276.995 11.308 6.083 12.268 12.403.7 4.602-.834 9.237-4.168 12.596-7.103 7.16-19.132 5.206-23.674-3.845-.505-1.007-.845-1.95-1.18-3.278-.265-1.052-.29-1.34-.29-3.286 0-1.947.025-2.234.29-3.286.493-1.956 1.057-3.255 2.109-4.862 2.215-3.385 5.88-5.759 9.955-6.447 1.223-.207 3.369-.205 4.69.005zm5.318 8.148c-.15.059-2.303 2.135-4.784 4.613l-4.51 4.506-2.928-2.916c-2.496-2.488-2.986-2.927-3.33-2.99-1.149-.21-2.208.963-1.85 2.049.185.558 7.27 7.585 7.75 7.686.83.173.76.231 6.346-5.34 4.344-4.335 5.3-5.34 5.39-5.678.333-1.227-.919-2.385-2.084-1.93z"/>
    </g>
    
</symbol><symbol id="icon-telega" viewBox="0 0 24 24">
    <path fill-rule="evenodd" clip-rule="evenodd" d="M2.208 11.311l18.337-7.287a.33.33 0 0 1 .45.364l-2.956 16.15a.332.332 0 0 1-.497.222l-5.312-3.166a.334.334 0 0 0-.354.008l-3.212 2.11a.333.333 0 0 1-.503-.19l-.44-1.644-1.15-4.194a.22.22 0 0 0-.134-.147l-4.225-1.614a.328.328 0 0 1-.004-.612zm6.172 6.055l-.995-3.955a.327.327 0 0 1 .137-.353l8.97-5.941a.222.222 0 0 1 .34.143l.049.265a.218.218 0 0 1-.062.194l-7.841 7.738a.328.328 0 0 0-.093.18l-.289 1.72c-.02.117-.187.124-.216.009z"/>
</symbol><symbol id="icon-viber" viewBox="0 0 24 24">
    <path fill-rule="evenodd" clip-rule="evenodd" d="M9.036.026c-3.713.3-6.857 2.937-7.754 6.506-.235.935-.25 1.135-.275 3.723-.029 3.061.02 3.791.332 4.92.55 1.991 1.93 3.838 3.722 4.976.287.183 1.074.592 1.304.678l.127.048.014 1.43c.014 1.425.014 1.432.123 1.548a.424.424 0 0 0 .489.11c.07-.03.725-.594 1.454-1.252l1.326-1.198 2.66-.029c2.796-.03 3.004-.044 3.886-.27 3.063-.786 5.52-3.245 6.272-6.277.255-1.025.263-1.159.263-4.204 0-3.047-.01-3.19-.264-4.203-.773-3.066-3.251-5.514-6.367-6.29-.871-.216-1.047-.227-4.02-.24-1.565-.007-3.047.004-3.292.024zm6.466.954c1.757.327 3.055.987 4.25 2.16a7.544 7.544 0 0 1 2.095 3.642c.228.908.238 1.077.238 4.024 0 2.677-.004 2.79-.106 3.323-.577 3.01-2.699 5.355-5.584 6.17-.911.258-1.016.266-3.997.287-2.456.017-2.788.028-2.892.095-.065.042-.555.474-1.09.96s-.984.884-1 .884c-.014 0-.026-.473-.026-1.05 0-1.26.026-1.198-.623-1.455-1.842-.728-3.435-2.297-4.233-4.168-.353-.828-.52-1.524-.602-2.502-.084-1.006-.034-5.32.068-5.898.304-1.719 1.036-3.125 2.245-4.312C5.62 1.79 7.334 1.026 9.27.902c.142-.01 1.518-.012 3.056-.005 2.239.01 2.874.027 3.175.083zM12.37 3.593c-.175.174-.189.426-.032.583.058.058.307.175.553.26 2.482.858 4.387 2.762 5.224 5.22.083.245.192.49.242.546.258.289.741.074.741-.329 0-.186-.317-1.044-.6-1.627-1.038-2.129-2.983-3.851-5.224-4.623-.6-.207-.724-.21-.904-.03zM7.429 4.71c-.712.584-1.602 1.404-1.724 1.587-.278.42-.354.693-.355 1.267-.002.837.162 1.316.768 2.255.764 1.182 1.72 2.386 2.585 3.253 1.095 1.099 2.93 2.397 4.947 3.5.857.47 1.095.55 1.62.55.485 0 .899-.122 1.285-.38.357-.238.473-.38 1.137-1.404.46-.711.533-.85.535-1.02.002-.14-.026-.226-.092-.29-.175-.169-2.961-1.946-3.186-2.033-.583-.224-1.205-.008-1.638.568l-.121.162-.373-.132c-1.406-.498-2.246-1.3-2.825-2.695l-.163-.394.304-.315c.385-.398.468-.583.47-1.038.002-.268-.023-.403-.1-.564-.1-.205-1.964-2.4-2.384-2.806-.256-.247-.451-.267-.69-.071zm5.247.924c-.258.113-.326.517-.118.705.046.041.262.14.48.219A4.722 4.722 0 0 1 14.84 7.71a4.757 4.757 0 0 1 1.179 1.864c.08.224.177.402.249.458.24.19.627.057.692-.238.02-.092-.006-.25-.075-.457-.45-1.352-1.435-2.533-2.724-3.262-.251-.142-1-.44-1.199-.478a.575.575 0 0 0-.286.037zm-3.989 1.14c.51.584.957 1.123.994 1.197.117.233.042.381-.388.772-.244.222-.404.406-.421.484-.037.17.245.974.547 1.563.688 1.34 1.58 2.087 3.214 2.695.259.096.572.185.695.198.265.027.329-.018.603-.42.295-.432.505-.544.763-.407.16.085 2.352 1.502 2.421 1.565.05.046-.012.171-.334.665-.634.97-.83 1.118-1.498 1.12-.397 0-.42-.006-.847-.228a41.234 41.234 0 0 1-2.39-1.414c-2.21-1.43-3.534-2.763-5.094-5.124-.584-.883-.71-1.211-.713-1.852-.002-.593.08-.73.836-1.388.337-.293.63-.524.65-.511.02.012.453.5.962 1.085zm4.033.7a.44.44 0 0 0-.127.684c.038.043.191.123.34.179.533.2 1.043.705 1.232 1.223.058.158.157.328.222.378a.444.444 0 0 0 .56-.021c.202-.175.182-.425-.076-.947a2.877 2.877 0 0 0-1.32-1.325c-.498-.237-.64-.266-.832-.17z"/>
</symbol><symbol id="icon-whatsapp" viewBox="0 0 24 24">
    <g clip-path="url(#a)">
        <path d="M17.507 14.307l-.009.075c-2.199-1.096-2.429-1.242-2.713-.816-.197.295-.771.964-.944 1.162-.175.195-.349.21-.646.075-.3-.15-1.263-.465-2.403-1.485-.888-.795-1.484-1.77-1.66-2.07-.293-.506.32-.578.878-1.634.1-.21.049-.375-.025-.524-.075-.15-.672-1.62-.922-2.206-.24-.584-.487-.51-.672-.51-.576-.05-.997-.042-1.368.344-1.614 1.774-1.207 3.604.174 5.55 2.714 3.552 4.16 4.206 6.804 5.114.714.227 1.365.195 1.88.121.574-.091 1.767-.721 2.016-1.426.255-.705.255-1.29.18-1.425-.074-.135-.27-.21-.57-.345z"/>
        <path d="M20.52 3.448C12.831-3.985.106 1.406.101 11.892c0 2.096.549 4.14 1.595 5.945L0 23.999l6.335-1.652c7.905 4.27 17.661-1.4 17.665-10.45 0-3.175-1.24-6.164-3.495-8.41l.015-.04zm1.482 8.417c-.006 7.633-8.385 12.4-15.012 8.504l-.36-.214-3.75.975 1.005-3.645-.239-.375c-4.124-6.565.614-15.145 8.426-15.145a9.865 9.865 0 0 1 7.021 2.91 9.788 9.788 0 0 1 2.909 6.99z"/>
    </g>
    
</symbol></svg>